<mxfile host="app.diagrams.net" agent="Mozilla/5.0 (Windows NT 10.0; Win64; x64; rv:131.0) Gecko/20100101 Firefox/131.0" version="24.7.17">
  <diagram name="Page-1" id="-yvtjSVOBkPBHiRVmAEW">
    <mxGraphModel dx="1720" dy="807" grid="1" gridSize="10" guides="1" tooltips="1" connect="1" arrows="1" fold="1" page="1" pageScale="1" pageWidth="2300" pageHeight="2000" math="0" shadow="0">
      <root>
        <mxCell id="0" />
        <mxCell id="1" parent="0" />
        <mxCell id="7bKF3bl3Uuq6F6FFyZXD-1" style="edgeStyle=orthogonalEdgeStyle;rounded=0;orthogonalLoop=1;jettySize=auto;html=1;exitX=0.5;exitY=1;exitDx=0;exitDy=0;entryX=0.5;entryY=0;entryDx=0;entryDy=0;" parent="1" source="7bKF3bl3Uuq6F6FFyZXD-2" target="7bKF3bl3Uuq6F6FFyZXD-4" edge="1">
          <mxGeometry relative="1" as="geometry" />
        </mxCell>
        <mxCell id="7bKF3bl3Uuq6F6FFyZXD-2" value="START" style="rounded=1;whiteSpace=wrap;html=1;fontSize=12;glass=0;strokeWidth=1;shadow=0;" parent="1" vertex="1">
          <mxGeometry x="460" y="580" width="120" height="40" as="geometry" />
        </mxCell>
        <mxCell id="7bKF3bl3Uuq6F6FFyZXD-3" style="edgeStyle=orthogonalEdgeStyle;rounded=0;orthogonalLoop=1;jettySize=auto;html=1;exitX=0.5;exitY=1;exitDx=0;exitDy=0;entryX=0.5;entryY=0;entryDx=0;entryDy=0;" parent="1" source="7bKF3bl3Uuq6F6FFyZXD-4" target="7bKF3bl3Uuq6F6FFyZXD-6" edge="1">
          <mxGeometry relative="1" as="geometry" />
        </mxCell>
        <mxCell id="7bKF3bl3Uuq6F6FFyZXD-4" value="&lt;div&gt;&lt;font style=&quot;font-size: 8px;&quot;&gt;1. Daftar Akun&lt;/font&gt;&lt;/div&gt;&lt;div&gt;&lt;font style=&quot;font-size: 8px;&quot;&gt;2. Login&lt;/font&gt;&lt;/div&gt;&lt;div&gt;&lt;font style=&quot;font-size: 8px;&quot;&gt;3. Exit&lt;br&gt;&lt;/font&gt;&lt;/div&gt;" style="shape=parallelogram;perimeter=parallelogramPerimeter;whiteSpace=wrap;html=1;fixedSize=1;" parent="1" vertex="1">
          <mxGeometry x="460" y="660" width="120" height="60" as="geometry" />
        </mxCell>
        <mxCell id="7bKF3bl3Uuq6F6FFyZXD-5" style="edgeStyle=orthogonalEdgeStyle;rounded=0;orthogonalLoop=1;jettySize=auto;html=1;exitX=0.5;exitY=1;exitDx=0;exitDy=0;entryX=0.5;entryY=0;entryDx=0;entryDy=0;" parent="1" source="7bKF3bl3Uuq6F6FFyZXD-6" target="7bKF3bl3Uuq6F6FFyZXD-8" edge="1">
          <mxGeometry relative="1" as="geometry" />
        </mxCell>
        <mxCell id="7bKF3bl3Uuq6F6FFyZXD-6" value="&lt;font style=&quot;font-size: 8px;&quot;&gt;1. Daftar Akun&lt;br&gt;&lt;/font&gt;" style="rhombus;whiteSpace=wrap;html=1;" parent="1" vertex="1">
          <mxGeometry x="480" y="760" width="80" height="80" as="geometry" />
        </mxCell>
        <mxCell id="7bKF3bl3Uuq6F6FFyZXD-7" style="edgeStyle=orthogonalEdgeStyle;rounded=0;orthogonalLoop=1;jettySize=auto;html=1;exitX=1;exitY=0.5;exitDx=0;exitDy=0;entryX=0;entryY=0.5;entryDx=0;entryDy=0;" parent="1" source="7bKF3bl3Uuq6F6FFyZXD-8" target="7bKF3bl3Uuq6F6FFyZXD-11" edge="1">
          <mxGeometry relative="1" as="geometry">
            <mxPoint x="660" y="920" as="targetPoint" />
          </mxGeometry>
        </mxCell>
        <mxCell id="7bKF3bl3Uuq6F6FFyZXD-8" value="&lt;font style=&quot;font-size: 8px;&quot;&gt;2. Login&lt;br&gt;&lt;/font&gt;" style="rhombus;whiteSpace=wrap;html=1;" parent="1" vertex="1">
          <mxGeometry x="480" y="900" width="80" height="80" as="geometry" />
        </mxCell>
        <mxCell id="7bKF3bl3Uuq6F6FFyZXD-70" style="edgeStyle=orthogonalEdgeStyle;rounded=0;orthogonalLoop=1;jettySize=auto;html=1;exitX=0;exitY=0.5;exitDx=0;exitDy=0;entryX=0;entryY=0.5;entryDx=0;entryDy=0;" parent="1" source="7bKF3bl3Uuq6F6FFyZXD-9" target="7bKF3bl3Uuq6F6FFyZXD-4" edge="1">
          <mxGeometry relative="1" as="geometry">
            <mxPoint x="420" y="690" as="targetPoint" />
            <Array as="points">
              <mxPoint x="270" y="1080" />
              <mxPoint x="270" y="690" />
            </Array>
          </mxGeometry>
        </mxCell>
        <mxCell id="mrZ9wVFB_9mN2UCOwn0G-32" value="False" style="edgeLabel;html=1;align=center;verticalAlign=middle;resizable=0;points=[];" vertex="1" connectable="0" parent="7bKF3bl3Uuq6F6FFyZXD-70">
          <mxGeometry x="-0.7875" y="-3" relative="1" as="geometry">
            <mxPoint as="offset" />
          </mxGeometry>
        </mxCell>
        <mxCell id="7bKF3bl3Uuq6F6FFyZXD-87" style="edgeStyle=orthogonalEdgeStyle;rounded=0;orthogonalLoop=1;jettySize=auto;html=1;exitX=0.5;exitY=1;exitDx=0;exitDy=0;entryX=0;entryY=0.5;entryDx=0;entryDy=0;" parent="1" source="7bKF3bl3Uuq6F6FFyZXD-9" edge="1" target="7bKF3bl3Uuq6F6FFyZXD-91">
          <mxGeometry relative="1" as="geometry">
            <mxPoint x="520" y="2170" as="targetPoint" />
            <Array as="points">
              <mxPoint x="520" y="2165" />
            </Array>
          </mxGeometry>
        </mxCell>
        <mxCell id="7bKF3bl3Uuq6F6FFyZXD-9" value="&lt;font style=&quot;font-size: 8px;&quot;&gt;3. Exit&lt;br&gt;&lt;/font&gt;" style="rhombus;whiteSpace=wrap;html=1;" parent="1" vertex="1">
          <mxGeometry x="480" y="1040" width="80" height="80" as="geometry" />
        </mxCell>
        <mxCell id="7bKF3bl3Uuq6F6FFyZXD-11" value="Admin" style="rhombus;whiteSpace=wrap;html=1;" parent="1" vertex="1">
          <mxGeometry x="719" y="900" width="80" height="80" as="geometry" />
        </mxCell>
        <mxCell id="7bKF3bl3Uuq6F6FFyZXD-12" value="" style="endArrow=classic;html=1;rounded=0;entryX=0.5;entryY=0;entryDx=0;entryDy=0;" parent="1" source="7bKF3bl3Uuq6F6FFyZXD-8" target="7bKF3bl3Uuq6F6FFyZXD-9" edge="1">
          <mxGeometry relative="1" as="geometry">
            <mxPoint x="550" y="970" as="sourcePoint" />
            <mxPoint x="560" y="1010" as="targetPoint" />
          </mxGeometry>
        </mxCell>
        <mxCell id="7bKF3bl3Uuq6F6FFyZXD-13" value="False" style="edgeLabel;resizable=0;html=1;;align=center;verticalAlign=middle;" parent="7bKF3bl3Uuq6F6FFyZXD-12" connectable="0" vertex="1">
          <mxGeometry relative="1" as="geometry">
            <mxPoint as="offset" />
          </mxGeometry>
        </mxCell>
        <mxCell id="7bKF3bl3Uuq6F6FFyZXD-14" value="" style="endArrow=classic;html=1;rounded=0;exitX=0;exitY=0.5;exitDx=0;exitDy=0;entryX=1;entryY=0.5;entryDx=0;entryDy=0;" parent="1" source="7bKF3bl3Uuq6F6FFyZXD-6" target="7bKF3bl3Uuq6F6FFyZXD-16" edge="1">
          <mxGeometry relative="1" as="geometry">
            <mxPoint x="420" y="919.5" as="sourcePoint" />
            <mxPoint x="440" y="810" as="targetPoint" />
            <Array as="points" />
          </mxGeometry>
        </mxCell>
        <mxCell id="7bKF3bl3Uuq6F6FFyZXD-15" value="True" style="edgeLabel;resizable=0;html=1;;align=center;verticalAlign=middle;" parent="7bKF3bl3Uuq6F6FFyZXD-14" connectable="0" vertex="1">
          <mxGeometry relative="1" as="geometry" />
        </mxCell>
        <mxCell id="7bKF3bl3Uuq6F6FFyZXD-71" style="edgeStyle=orthogonalEdgeStyle;rounded=0;orthogonalLoop=1;jettySize=auto;html=1;exitX=0;exitY=0.5;exitDx=0;exitDy=0;" parent="1" source="7bKF3bl3Uuq6F6FFyZXD-16" edge="1">
          <mxGeometry relative="1" as="geometry">
            <mxPoint x="270" y="800" as="targetPoint" />
          </mxGeometry>
        </mxCell>
        <mxCell id="7bKF3bl3Uuq6F6FFyZXD-16" value="Tambahkan Username dan password" style="rounded=0;whiteSpace=wrap;html=1;" parent="1" vertex="1">
          <mxGeometry x="310" y="770" width="110" height="60" as="geometry" />
        </mxCell>
        <mxCell id="7bKF3bl3Uuq6F6FFyZXD-18" value="&lt;div&gt;MENU ADMIN&lt;/div&gt;&lt;div&gt;&lt;font style=&quot;font-size: 8px;&quot;&gt;[1].Tambah Parfum&lt;/font&gt;&lt;/div&gt;&lt;div&gt;&lt;font style=&quot;font-size: 8px;&quot;&gt;[2]. Hapus Parfum&lt;/font&gt;&lt;/div&gt;&lt;div&gt;&lt;font style=&quot;font-size: 8px;&quot;&gt;[3]. List Parfum&lt;/font&gt;&lt;/div&gt;&lt;div&gt;&lt;font style=&quot;font-size: 8px;&quot;&gt;[4]. Log Out&lt;/font&gt;&lt;/div&gt;&lt;div&gt;&lt;font style=&quot;font-size: 8px;&quot;&gt;[5]. Exit&lt;/font&gt;&lt;br&gt;&lt;/div&gt;" style="shape=parallelogram;perimeter=parallelogramPerimeter;whiteSpace=wrap;html=1;fixedSize=1;" parent="1" vertex="1">
          <mxGeometry x="669" y="1030" width="180" height="90" as="geometry" />
        </mxCell>
        <mxCell id="7bKF3bl3Uuq6F6FFyZXD-21" value="&lt;div&gt;&lt;font style=&quot;font-size: 10px;&quot;&gt;[1]. Tambah&lt;/font&gt;&lt;/div&gt;&lt;div&gt;&lt;font style=&quot;font-size: 10px;&quot;&gt;Parfum&lt;/font&gt;&lt;br&gt;&lt;/div&gt;" style="rhombus;whiteSpace=wrap;html=1;" parent="1" vertex="1">
          <mxGeometry x="714" y="1170" width="90" height="90" as="geometry" />
        </mxCell>
        <mxCell id="7bKF3bl3Uuq6F6FFyZXD-23" value="&lt;font style=&quot;font-size: 11px;&quot;&gt;[2]. Hapus Parfum&lt;/font&gt;" style="rhombus;whiteSpace=wrap;html=1;" parent="1" vertex="1">
          <mxGeometry x="714" y="1320" width="90" height="80" as="geometry" />
        </mxCell>
        <mxCell id="7bKF3bl3Uuq6F6FFyZXD-26" style="edgeStyle=orthogonalEdgeStyle;rounded=0;orthogonalLoop=1;jettySize=auto;html=1;exitX=1;exitY=0.5;exitDx=0;exitDy=0;" parent="1" source="7bKF3bl3Uuq6F6FFyZXD-27" target="7bKF3bl3Uuq6F6FFyZXD-4" edge="1">
          <mxGeometry relative="1" as="geometry">
            <mxPoint x="850" y="760" as="targetPoint" />
            <Array as="points">
              <mxPoint x="1180" y="1650" />
              <mxPoint x="1180" y="690" />
            </Array>
          </mxGeometry>
        </mxCell>
        <mxCell id="7bKF3bl3Uuq6F6FFyZXD-27" value="[4]. Log Out" style="rhombus;whiteSpace=wrap;html=1;" parent="1" vertex="1">
          <mxGeometry x="719" y="1610" width="80" height="80" as="geometry" />
        </mxCell>
        <mxCell id="7bKF3bl3Uuq6F6FFyZXD-77" style="edgeStyle=orthogonalEdgeStyle;rounded=0;orthogonalLoop=1;jettySize=auto;html=1;exitX=1;exitY=0.5;exitDx=0;exitDy=0;entryX=1;entryY=1;entryDx=0;entryDy=0;" parent="1" source="7bKF3bl3Uuq6F6FFyZXD-28" target="7bKF3bl3Uuq6F6FFyZXD-18" edge="1">
          <mxGeometry relative="1" as="geometry">
            <mxPoint x="1080" y="1110" as="targetPoint" />
            <Array as="points">
              <mxPoint x="1070" y="1215" />
              <mxPoint x="1070" y="1110" />
              <mxPoint x="831" y="1110" />
            </Array>
          </mxGeometry>
        </mxCell>
        <mxCell id="7bKF3bl3Uuq6F6FFyZXD-28" value="&lt;div&gt;[1].Nama Parfum&lt;/div&gt;&lt;div&gt;[2] Jumlah Parfum&lt;/div&gt;&lt;div&gt;[3] Harga Parfum&lt;br&gt;&lt;/div&gt;" style="rounded=0;whiteSpace=wrap;html=1;" parent="1" vertex="1">
          <mxGeometry x="910" y="1175" width="130" height="80" as="geometry" />
        </mxCell>
        <mxCell id="7bKF3bl3Uuq6F6FFyZXD-33" value="" style="endArrow=classic;html=1;rounded=0;entryX=0.5;entryY=0;entryDx=0;entryDy=0;exitX=0.5;exitY=1;exitDx=0;exitDy=0;" parent="1" source="7bKF3bl3Uuq6F6FFyZXD-21" target="7bKF3bl3Uuq6F6FFyZXD-23" edge="1">
          <mxGeometry relative="1" as="geometry">
            <mxPoint x="760" y="1200" as="sourcePoint" />
            <mxPoint x="860" y="1200" as="targetPoint" />
          </mxGeometry>
        </mxCell>
        <mxCell id="7bKF3bl3Uuq6F6FFyZXD-34" value="False" style="edgeLabel;resizable=0;html=1;;align=center;verticalAlign=middle;" parent="7bKF3bl3Uuq6F6FFyZXD-33" connectable="0" vertex="1">
          <mxGeometry relative="1" as="geometry">
            <mxPoint y="-5" as="offset" />
          </mxGeometry>
        </mxCell>
        <mxCell id="7bKF3bl3Uuq6F6FFyZXD-35" value="&lt;font style=&quot;font-size: 10px;&quot;&gt;[3]. List Parfum&lt;/font&gt;" style="rhombus;whiteSpace=wrap;html=1;" parent="1" vertex="1">
          <mxGeometry x="714" y="1460" width="90" height="80" as="geometry" />
        </mxCell>
        <mxCell id="7bKF3bl3Uuq6F6FFyZXD-36" value="" style="endArrow=classic;html=1;rounded=0;exitX=0.5;exitY=1;exitDx=0;exitDy=0;entryX=0.5;entryY=0;entryDx=0;entryDy=0;" parent="1" source="7bKF3bl3Uuq6F6FFyZXD-18" target="7bKF3bl3Uuq6F6FFyZXD-21" edge="1">
          <mxGeometry relative="1" as="geometry">
            <mxPoint x="810" y="1260" as="sourcePoint" />
            <mxPoint x="754" y="1140" as="targetPoint" />
          </mxGeometry>
        </mxCell>
        <mxCell id="7bKF3bl3Uuq6F6FFyZXD-39" value="" style="endArrow=classic;html=1;rounded=0;entryX=0.5;entryY=0;entryDx=0;entryDy=0;" parent="1" source="7bKF3bl3Uuq6F6FFyZXD-23" target="7bKF3bl3Uuq6F6FFyZXD-35" edge="1">
          <mxGeometry relative="1" as="geometry">
            <mxPoint x="660" y="1300" as="sourcePoint" />
            <mxPoint x="760" y="1300" as="targetPoint" />
            <Array as="points" />
          </mxGeometry>
        </mxCell>
        <mxCell id="7bKF3bl3Uuq6F6FFyZXD-40" value="False" style="edgeLabel;resizable=0;html=1;;align=center;verticalAlign=middle;" parent="7bKF3bl3Uuq6F6FFyZXD-39" connectable="0" vertex="1">
          <mxGeometry relative="1" as="geometry" />
        </mxCell>
        <mxCell id="7bKF3bl3Uuq6F6FFyZXD-41" value="" style="endArrow=classic;html=1;rounded=0;exitX=1;exitY=0.5;exitDx=0;exitDy=0;entryX=0;entryY=0.5;entryDx=0;entryDy=0;" parent="1" source="7bKF3bl3Uuq6F6FFyZXD-8" target="7bKF3bl3Uuq6F6FFyZXD-11" edge="1">
          <mxGeometry relative="1" as="geometry">
            <mxPoint x="510" y="960" as="sourcePoint" />
            <mxPoint x="610" y="960" as="targetPoint" />
          </mxGeometry>
        </mxCell>
        <mxCell id="7bKF3bl3Uuq6F6FFyZXD-42" value="True" style="edgeLabel;resizable=0;html=1;;align=center;verticalAlign=middle;" parent="7bKF3bl3Uuq6F6FFyZXD-41" connectable="0" vertex="1">
          <mxGeometry relative="1" as="geometry" />
        </mxCell>
        <mxCell id="7bKF3bl3Uuq6F6FFyZXD-43" value="" style="endArrow=classic;html=1;rounded=0;exitX=0.5;exitY=1;exitDx=0;exitDy=0;" parent="1" source="7bKF3bl3Uuq6F6FFyZXD-6" target="7bKF3bl3Uuq6F6FFyZXD-8" edge="1">
          <mxGeometry relative="1" as="geometry">
            <mxPoint x="510" y="910" as="sourcePoint" />
            <mxPoint x="610" y="910" as="targetPoint" />
          </mxGeometry>
        </mxCell>
        <mxCell id="7bKF3bl3Uuq6F6FFyZXD-44" value="False" style="edgeLabel;resizable=0;html=1;;align=center;verticalAlign=middle;" parent="7bKF3bl3Uuq6F6FFyZXD-43" connectable="0" vertex="1">
          <mxGeometry relative="1" as="geometry" />
        </mxCell>
        <mxCell id="7bKF3bl3Uuq6F6FFyZXD-53" style="edgeStyle=orthogonalEdgeStyle;rounded=0;orthogonalLoop=1;jettySize=auto;html=1;exitX=0.5;exitY=1;exitDx=0;exitDy=0;" parent="1" source="7bKF3bl3Uuq6F6FFyZXD-11" target="7bKF3bl3Uuq6F6FFyZXD-11" edge="1">
          <mxGeometry relative="1" as="geometry" />
        </mxCell>
        <mxCell id="7bKF3bl3Uuq6F6FFyZXD-55" value="" style="endArrow=classic;html=1;rounded=0;exitX=0.5;exitY=1;exitDx=0;exitDy=0;" parent="1" source="7bKF3bl3Uuq6F6FFyZXD-11" target="7bKF3bl3Uuq6F6FFyZXD-18" edge="1">
          <mxGeometry relative="1" as="geometry">
            <mxPoint x="770" y="1110" as="sourcePoint" />
            <mxPoint x="870" y="1110" as="targetPoint" />
          </mxGeometry>
        </mxCell>
        <mxCell id="7bKF3bl3Uuq6F6FFyZXD-56" value="True" style="edgeLabel;resizable=0;html=1;;align=center;verticalAlign=middle;" parent="7bKF3bl3Uuq6F6FFyZXD-55" connectable="0" vertex="1">
          <mxGeometry relative="1" as="geometry" />
        </mxCell>
        <mxCell id="7bKF3bl3Uuq6F6FFyZXD-57" value="" style="endArrow=classic;html=1;rounded=0;exitX=1;exitY=0.5;exitDx=0;exitDy=0;" parent="1" source="7bKF3bl3Uuq6F6FFyZXD-23" edge="1">
          <mxGeometry relative="1" as="geometry">
            <mxPoint x="770" y="1370" as="sourcePoint" />
            <mxPoint x="910" y="1360" as="targetPoint" />
          </mxGeometry>
        </mxCell>
        <mxCell id="7bKF3bl3Uuq6F6FFyZXD-58" value="True" style="edgeLabel;resizable=0;html=1;;align=center;verticalAlign=middle;" parent="7bKF3bl3Uuq6F6FFyZXD-57" connectable="0" vertex="1">
          <mxGeometry relative="1" as="geometry" />
        </mxCell>
        <mxCell id="7bKF3bl3Uuq6F6FFyZXD-59" value="" style="endArrow=classic;html=1;rounded=0;exitX=1;exitY=0.5;exitDx=0;exitDy=0;entryX=0;entryY=0.5;entryDx=0;entryDy=0;" parent="1" source="7bKF3bl3Uuq6F6FFyZXD-21" target="7bKF3bl3Uuq6F6FFyZXD-28" edge="1">
          <mxGeometry relative="1" as="geometry">
            <mxPoint x="770" y="1370" as="sourcePoint" />
            <mxPoint x="890" y="1220" as="targetPoint" />
          </mxGeometry>
        </mxCell>
        <mxCell id="7bKF3bl3Uuq6F6FFyZXD-60" value="True" style="edgeLabel;resizable=0;html=1;;align=center;verticalAlign=middle;" parent="7bKF3bl3Uuq6F6FFyZXD-59" connectable="0" vertex="1">
          <mxGeometry relative="1" as="geometry" />
        </mxCell>
        <mxCell id="7bKF3bl3Uuq6F6FFyZXD-63" value="" style="endArrow=classic;html=1;rounded=0;exitX=0.5;exitY=1;exitDx=0;exitDy=0;entryX=0.5;entryY=0;entryDx=0;entryDy=0;" parent="1" source="7bKF3bl3Uuq6F6FFyZXD-35" target="7bKF3bl3Uuq6F6FFyZXD-27" edge="1">
          <mxGeometry relative="1" as="geometry">
            <mxPoint x="770" y="1450" as="sourcePoint" />
            <mxPoint x="870" y="1450" as="targetPoint" />
          </mxGeometry>
        </mxCell>
        <mxCell id="7bKF3bl3Uuq6F6FFyZXD-64" value="False" style="edgeLabel;resizable=0;html=1;;align=center;verticalAlign=middle;" parent="7bKF3bl3Uuq6F6FFyZXD-63" connectable="0" vertex="1">
          <mxGeometry relative="1" as="geometry" />
        </mxCell>
        <mxCell id="7bKF3bl3Uuq6F6FFyZXD-76" style="edgeStyle=orthogonalEdgeStyle;rounded=0;orthogonalLoop=1;jettySize=auto;html=1;exitX=1;exitY=0.5;exitDx=0;exitDy=0;entryX=1;entryY=0.5;entryDx=0;entryDy=0;" parent="1" source="7bKF3bl3Uuq6F6FFyZXD-65" target="7bKF3bl3Uuq6F6FFyZXD-18" edge="1">
          <mxGeometry relative="1" as="geometry">
            <mxPoint x="1120" y="1070" as="targetPoint" />
            <Array as="points">
              <mxPoint x="1100" y="1360" />
              <mxPoint x="1100" y="1075" />
            </Array>
          </mxGeometry>
        </mxCell>
        <mxCell id="7bKF3bl3Uuq6F6FFyZXD-65" value="Hapus Data Parfum" style="rounded=0;whiteSpace=wrap;html=1;" parent="1" vertex="1">
          <mxGeometry x="910" y="1320" width="130" height="80" as="geometry" />
        </mxCell>
        <mxCell id="7bKF3bl3Uuq6F6FFyZXD-66" value="" style="endArrow=classic;html=1;rounded=0;exitX=1;exitY=0.5;exitDx=0;exitDy=0;entryX=0;entryY=0.5;entryDx=0;entryDy=0;" parent="1" source="7bKF3bl3Uuq6F6FFyZXD-35" target="7bKF3bl3Uuq6F6FFyZXD-68" edge="1">
          <mxGeometry relative="1" as="geometry">
            <mxPoint x="770" y="1420" as="sourcePoint" />
            <mxPoint x="910" y="1500" as="targetPoint" />
          </mxGeometry>
        </mxCell>
        <mxCell id="7bKF3bl3Uuq6F6FFyZXD-67" value="True" style="edgeLabel;resizable=0;html=1;;align=center;verticalAlign=middle;" parent="7bKF3bl3Uuq6F6FFyZXD-66" connectable="0" vertex="1">
          <mxGeometry relative="1" as="geometry" />
        </mxCell>
        <mxCell id="7bKF3bl3Uuq6F6FFyZXD-74" style="edgeStyle=orthogonalEdgeStyle;rounded=0;orthogonalLoop=1;jettySize=auto;html=1;exitX=1;exitY=0.5;exitDx=0;exitDy=0;entryX=1.006;entryY=0.112;entryDx=0;entryDy=0;entryPerimeter=0;" parent="1" edge="1">
          <mxGeometry relative="1" as="geometry">
            <mxPoint x="849.9999999999999" y="1050.01" as="targetPoint" />
            <mxPoint x="1039.92" y="1509.93" as="sourcePoint" />
            <Array as="points">
              <mxPoint x="1140" y="1510" />
              <mxPoint x="1140" y="1050" />
            </Array>
          </mxGeometry>
        </mxCell>
        <mxCell id="7bKF3bl3Uuq6F6FFyZXD-68" value="Tampilkan Data Parfum" style="rounded=0;whiteSpace=wrap;html=1;" parent="1" vertex="1">
          <mxGeometry x="910" y="1460" width="130" height="80" as="geometry" />
        </mxCell>
        <mxCell id="7bKF3bl3Uuq6F6FFyZXD-79" value="" style="endArrow=classic;html=1;rounded=0;exitX=0.5;exitY=1;exitDx=0;exitDy=0;" parent="1" source="7bKF3bl3Uuq6F6FFyZXD-81" edge="1">
          <mxGeometry relative="1" as="geometry">
            <mxPoint x="730" y="1740" as="sourcePoint" />
            <mxPoint x="760" y="1760" as="targetPoint" />
            <Array as="points">
              <mxPoint x="760" y="1780" />
              <mxPoint x="760" y="1760" />
              <mxPoint x="760" y="1810" />
            </Array>
          </mxGeometry>
        </mxCell>
        <mxCell id="7bKF3bl3Uuq6F6FFyZXD-84" style="edgeStyle=orthogonalEdgeStyle;rounded=0;orthogonalLoop=1;jettySize=auto;html=1;exitX=0;exitY=0.5;exitDx=0;exitDy=0;entryX=0;entryY=0.5;entryDx=0;entryDy=0;" parent="1" target="7bKF3bl3Uuq6F6FFyZXD-18" edge="1">
          <mxGeometry relative="1" as="geometry">
            <mxPoint x="669" y="1110" as="targetPoint" />
            <mxPoint x="719" y="1815" as="sourcePoint" />
            <Array as="points">
              <mxPoint x="719" y="1816" />
              <mxPoint x="591" y="1816" />
              <mxPoint x="591" y="1075" />
            </Array>
          </mxGeometry>
        </mxCell>
        <mxCell id="mrZ9wVFB_9mN2UCOwn0G-30" value="False" style="edgeLabel;html=1;align=center;verticalAlign=middle;resizable=0;points=[];" vertex="1" connectable="0" parent="7bKF3bl3Uuq6F6FFyZXD-84">
          <mxGeometry x="-0.8663" y="-4" relative="1" as="geometry">
            <mxPoint as="offset" />
          </mxGeometry>
        </mxCell>
        <mxCell id="7bKF3bl3Uuq6F6FFyZXD-89" value="" style="endArrow=classic;html=1;rounded=0;exitX=0.5;exitY=1;exitDx=0;exitDy=0;" parent="1" source="7bKF3bl3Uuq6F6FFyZXD-27" target="7bKF3bl3Uuq6F6FFyZXD-81" edge="1">
          <mxGeometry relative="1" as="geometry">
            <mxPoint x="759" y="1690" as="sourcePoint" />
            <mxPoint x="760" y="1760" as="targetPoint" />
            <Array as="points" />
          </mxGeometry>
        </mxCell>
        <mxCell id="7bKF3bl3Uuq6F6FFyZXD-90" value="False" style="edgeLabel;resizable=0;html=1;;align=center;verticalAlign=middle;" parent="7bKF3bl3Uuq6F6FFyZXD-89" connectable="0" vertex="1">
          <mxGeometry relative="1" as="geometry">
            <mxPoint x="-1" y="-35" as="offset" />
          </mxGeometry>
        </mxCell>
        <mxCell id="mrZ9wVFB_9mN2UCOwn0G-6" style="edgeStyle=orthogonalEdgeStyle;rounded=0;orthogonalLoop=1;jettySize=auto;html=1;exitX=0.5;exitY=1;exitDx=0;exitDy=0;" edge="1" parent="1" source="7bKF3bl3Uuq6F6FFyZXD-81">
          <mxGeometry relative="1" as="geometry">
            <mxPoint x="759.7272727272725" y="2130" as="targetPoint" />
          </mxGeometry>
        </mxCell>
        <mxCell id="mrZ9wVFB_9mN2UCOwn0G-31" value="True" style="edgeLabel;html=1;align=center;verticalAlign=middle;resizable=0;points=[];" vertex="1" connectable="0" parent="mrZ9wVFB_9mN2UCOwn0G-6">
          <mxGeometry x="-0.0236" y="-1" relative="1" as="geometry">
            <mxPoint as="offset" />
          </mxGeometry>
        </mxCell>
        <mxCell id="7bKF3bl3Uuq6F6FFyZXD-81" value="[5] Exit" style="rhombus;whiteSpace=wrap;html=1;" parent="1" vertex="1">
          <mxGeometry x="710" y="1760" width="100" height="110" as="geometry" />
        </mxCell>
        <mxCell id="7bKF3bl3Uuq6F6FFyZXD-91" value="END" style="rounded=1;whiteSpace=wrap;html=1;" parent="1" vertex="1">
          <mxGeometry x="689" y="2140" width="140" height="50" as="geometry" />
        </mxCell>
        <mxCell id="mrZ9wVFB_9mN2UCOwn0G-2" value="" style="endArrow=classic;html=1;rounded=0;exitX=1;exitY=0.5;exitDx=0;exitDy=0;" edge="1" parent="1" source="7bKF3bl3Uuq6F6FFyZXD-11">
          <mxGeometry relative="1" as="geometry">
            <mxPoint x="980" y="970" as="sourcePoint" />
            <mxPoint x="1280" y="940" as="targetPoint" />
          </mxGeometry>
        </mxCell>
        <mxCell id="mrZ9wVFB_9mN2UCOwn0G-3" value="False" style="edgeLabel;resizable=0;html=1;;align=center;verticalAlign=middle;" connectable="0" vertex="1" parent="mrZ9wVFB_9mN2UCOwn0G-2">
          <mxGeometry relative="1" as="geometry" />
        </mxCell>
        <mxCell id="mrZ9wVFB_9mN2UCOwn0G-10" style="edgeStyle=orthogonalEdgeStyle;rounded=0;orthogonalLoop=1;jettySize=auto;html=1;exitX=0.5;exitY=1;exitDx=0;exitDy=0;" edge="1" parent="1" source="mrZ9wVFB_9mN2UCOwn0G-4">
          <mxGeometry relative="1" as="geometry">
            <mxPoint x="1340" y="1040" as="targetPoint" />
          </mxGeometry>
        </mxCell>
        <mxCell id="mrZ9wVFB_9mN2UCOwn0G-4" value="&lt;div&gt;MENU USER&lt;/div&gt;&lt;div&gt;[3]. List Parfum&lt;/div&gt;&lt;div&gt;[4]. Log Out&lt;/div&gt;&lt;div&gt;[5]. Exit&lt;br&gt;&lt;/div&gt;" style="shape=parallelogram;perimeter=parallelogramPerimeter;whiteSpace=wrap;html=1;fixedSize=1;" vertex="1" parent="1">
          <mxGeometry x="1270" y="930" width="160" height="80" as="geometry" />
        </mxCell>
        <mxCell id="mrZ9wVFB_9mN2UCOwn0G-7" style="edgeStyle=orthogonalEdgeStyle;rounded=0;orthogonalLoop=1;jettySize=auto;html=1;exitX=0.5;exitY=1;exitDx=0;exitDy=0;" edge="1" parent="1" source="mrZ9wVFB_9mN2UCOwn0G-4" target="mrZ9wVFB_9mN2UCOwn0G-4">
          <mxGeometry relative="1" as="geometry" />
        </mxCell>
        <mxCell id="mrZ9wVFB_9mN2UCOwn0G-11" value="[3]. List Parfum" style="rhombus;whiteSpace=wrap;html=1;" vertex="1" parent="1">
          <mxGeometry x="1290" y="1040" width="100" height="100" as="geometry" />
        </mxCell>
        <mxCell id="mrZ9wVFB_9mN2UCOwn0G-12" value="" style="endArrow=classic;html=1;rounded=0;" edge="1" parent="1" source="mrZ9wVFB_9mN2UCOwn0G-11">
          <mxGeometry relative="1" as="geometry">
            <mxPoint x="1310" y="1130" as="sourcePoint" />
            <mxPoint x="1340" y="1220" as="targetPoint" />
          </mxGeometry>
        </mxCell>
        <mxCell id="mrZ9wVFB_9mN2UCOwn0G-13" value="False" style="edgeLabel;resizable=0;html=1;;align=center;verticalAlign=middle;" connectable="0" vertex="1" parent="mrZ9wVFB_9mN2UCOwn0G-12">
          <mxGeometry relative="1" as="geometry" />
        </mxCell>
        <mxCell id="mrZ9wVFB_9mN2UCOwn0G-27" style="edgeStyle=orthogonalEdgeStyle;rounded=0;orthogonalLoop=1;jettySize=auto;html=1;exitX=0;exitY=0.5;exitDx=0;exitDy=0;entryX=0.983;entryY=0.117;entryDx=0;entryDy=0;entryPerimeter=0;" edge="1" parent="1">
          <mxGeometry relative="1" as="geometry">
            <mxPoint x="577.96" y="671.02" as="targetPoint" />
            <mxPoint x="1290" y="1269" as="sourcePoint" />
            <Array as="points">
              <mxPoint x="1211" y="1269" />
              <mxPoint x="1211" y="671" />
            </Array>
          </mxGeometry>
        </mxCell>
        <mxCell id="mrZ9wVFB_9mN2UCOwn0G-33" value="True" style="edgeLabel;html=1;align=center;verticalAlign=middle;resizable=0;points=[];" vertex="1" connectable="0" parent="mrZ9wVFB_9mN2UCOwn0G-27">
          <mxGeometry x="-0.9629" y="1" relative="1" as="geometry">
            <mxPoint as="offset" />
          </mxGeometry>
        </mxCell>
        <mxCell id="mrZ9wVFB_9mN2UCOwn0G-14" value="[4]. Log Out" style="rhombus;whiteSpace=wrap;html=1;" vertex="1" parent="1">
          <mxGeometry x="1290" y="1220" width="100" height="90" as="geometry" />
        </mxCell>
        <mxCell id="mrZ9wVFB_9mN2UCOwn0G-15" value="" style="endArrow=classic;html=1;rounded=0;exitX=0.5;exitY=1;exitDx=0;exitDy=0;" edge="1" parent="1" source="mrZ9wVFB_9mN2UCOwn0G-14">
          <mxGeometry relative="1" as="geometry">
            <mxPoint x="1310" y="1250" as="sourcePoint" />
            <mxPoint x="1340" y="1380" as="targetPoint" />
          </mxGeometry>
        </mxCell>
        <mxCell id="mrZ9wVFB_9mN2UCOwn0G-16" value="False" style="edgeLabel;resizable=0;html=1;;align=center;verticalAlign=middle;" connectable="0" vertex="1" parent="mrZ9wVFB_9mN2UCOwn0G-15">
          <mxGeometry relative="1" as="geometry" />
        </mxCell>
        <mxCell id="mrZ9wVFB_9mN2UCOwn0G-21" style="edgeStyle=orthogonalEdgeStyle;rounded=0;orthogonalLoop=1;jettySize=auto;html=1;exitX=0;exitY=0.5;exitDx=0;exitDy=0;entryX=0;entryY=0.75;entryDx=0;entryDy=0;" edge="1" parent="1" source="mrZ9wVFB_9mN2UCOwn0G-17" target="mrZ9wVFB_9mN2UCOwn0G-4">
          <mxGeometry relative="1" as="geometry">
            <mxPoint x="1230" y="970" as="targetPoint" />
            <Array as="points">
              <mxPoint x="1240" y="1430" />
              <mxPoint x="1240" y="989" />
            </Array>
          </mxGeometry>
        </mxCell>
        <mxCell id="mrZ9wVFB_9mN2UCOwn0G-17" value="[5]. Exit" style="rhombus;whiteSpace=wrap;html=1;" vertex="1" parent="1">
          <mxGeometry x="1290" y="1380" width="100" height="100" as="geometry" />
        </mxCell>
        <mxCell id="mrZ9wVFB_9mN2UCOwn0G-28" style="edgeStyle=orthogonalEdgeStyle;rounded=0;orthogonalLoop=1;jettySize=auto;html=1;exitX=0.5;exitY=1;exitDx=0;exitDy=0;entryX=1;entryY=0.5;entryDx=0;entryDy=0;" edge="1" parent="1" source="mrZ9wVFB_9mN2UCOwn0G-18" target="7bKF3bl3Uuq6F6FFyZXD-91">
          <mxGeometry relative="1" as="geometry">
            <mxPoint x="1340" y="2191" as="targetPoint" />
            <Array as="points">
              <mxPoint x="1340" y="2165" />
            </Array>
          </mxGeometry>
        </mxCell>
        <mxCell id="mrZ9wVFB_9mN2UCOwn0G-18" value="Akhir Program" style="rounded=0;whiteSpace=wrap;html=1;" vertex="1" parent="1">
          <mxGeometry x="1280" y="1560" width="120" height="60" as="geometry" />
        </mxCell>
        <mxCell id="mrZ9wVFB_9mN2UCOwn0G-19" value="" style="endArrow=classic;html=1;rounded=0;exitX=0.5;exitY=1;exitDx=0;exitDy=0;entryX=0.5;entryY=0;entryDx=0;entryDy=0;" edge="1" parent="1" source="mrZ9wVFB_9mN2UCOwn0G-17" target="mrZ9wVFB_9mN2UCOwn0G-18">
          <mxGeometry relative="1" as="geometry">
            <mxPoint x="1310" y="1440" as="sourcePoint" />
            <mxPoint x="1410" y="1440" as="targetPoint" />
          </mxGeometry>
        </mxCell>
        <mxCell id="mrZ9wVFB_9mN2UCOwn0G-20" value="True" style="edgeLabel;resizable=0;html=1;;align=center;verticalAlign=middle;" connectable="0" vertex="1" parent="mrZ9wVFB_9mN2UCOwn0G-19">
          <mxGeometry relative="1" as="geometry" />
        </mxCell>
        <mxCell id="mrZ9wVFB_9mN2UCOwn0G-22" value="" style="endArrow=classic;html=1;rounded=0;exitX=1;exitY=0.5;exitDx=0;exitDy=0;" edge="1" parent="1" source="mrZ9wVFB_9mN2UCOwn0G-11">
          <mxGeometry relative="1" as="geometry">
            <mxPoint x="1310" y="1230" as="sourcePoint" />
            <mxPoint x="1460" y="1090" as="targetPoint" />
          </mxGeometry>
        </mxCell>
        <mxCell id="mrZ9wVFB_9mN2UCOwn0G-23" value="True" style="edgeLabel;resizable=0;html=1;;align=center;verticalAlign=middle;" connectable="0" vertex="1" parent="mrZ9wVFB_9mN2UCOwn0G-22">
          <mxGeometry relative="1" as="geometry" />
        </mxCell>
        <mxCell id="mrZ9wVFB_9mN2UCOwn0G-25" style="edgeStyle=orthogonalEdgeStyle;rounded=0;orthogonalLoop=1;jettySize=auto;html=1;exitX=1;exitY=0.5;exitDx=0;exitDy=0;entryX=1;entryY=0.25;entryDx=0;entryDy=0;" edge="1" parent="1" source="mrZ9wVFB_9mN2UCOwn0G-24" target="mrZ9wVFB_9mN2UCOwn0G-4">
          <mxGeometry relative="1" as="geometry">
            <mxPoint x="1600" y="950" as="targetPoint" />
            <Array as="points">
              <mxPoint x="1601" y="1090" />
              <mxPoint x="1601" y="951" />
            </Array>
          </mxGeometry>
        </mxCell>
        <mxCell id="mrZ9wVFB_9mN2UCOwn0G-24" value="Tampilkan List Parfum" style="rounded=0;whiteSpace=wrap;html=1;" vertex="1" parent="1">
          <mxGeometry x="1460" y="1060" width="120" height="60" as="geometry" />
        </mxCell>
        <mxCell id="mrZ9wVFB_9mN2UCOwn0G-26" value="False" style="text;strokeColor=none;fillColor=none;align=left;verticalAlign=middle;spacingLeft=4;spacingRight=4;overflow=hidden;points=[[0,0.5],[1,0.5]];portConstraint=eastwest;rotatable=0;whiteSpace=wrap;html=1;" vertex="1" parent="1">
          <mxGeometry x="1250" y="1400" width="80" height="30" as="geometry" />
        </mxCell>
      </root>
    </mxGraphModel>
  </diagram>
</mxfile>
